M48
; DRILL file {KiCad (5.1.10)-1} date 04/04/22 21:04:09
; FORMAT={-:-/ absolute / metric / decimal}
; #@! TF.CreationDate,2022-04-04T21:04:09+02:00
; #@! TF.GenerationSoftware,Kicad,Pcbnew,(5.1.10)-1
; #@! TF.FileFunction,Plated,1,2,PTH
FMAT,2
METRIC
T1C0.300
T2C0.850
T3C1.000
T4C1.100
T5C1.110
%
G90
G05
T1
X92.834Y-45.434
X94.104Y-46.831
X94.104Y-61.182
X94.104Y-68.04
X94.993Y-49.625
X94.993Y-52.927
X95.628Y-61.309
X95.755Y-55.975
X95.755Y-69.183
X96.263Y-47.085
X97.025Y-55.975
X97.406Y-68.04
X97.787Y-64.865
X98.168Y-49.625
X98.168Y-52.927
X98.803Y-55.848
X100.657Y-62.401
X101.521Y-54.375
X101.521Y-59.607
X101.978Y-50.768
X103.299Y-44.926
X103.35Y-49.549
X103.604Y-59.556
X104.213Y-60.318
X104.721Y-46.145
X104.721Y-48.279
X105.534Y-49.549
X105.585Y-54.375
X106.931Y-50.768
X107.058Y-60.064
X107.82Y-50.514
X108.328Y-51.34
X112.265Y-52.927
X114.678Y-61.334
X114.805Y-53.607
X115.643Y-59.912
X119.555Y-56.356
X119.555Y-58.439
X120.114Y-49.346
X120.164Y-55.848
X121.942Y-55.848
T2
X90.954Y-52.293
X90.954Y-54.293
X90.954Y-56.293
X90.954Y-58.293
X90.954Y-60.293
T3
X99.946Y-43.148
X99.946Y-45.688
X99.946Y-48.228
X107.185Y-47.276
X109.725Y-47.276
X112.265Y-47.276
X114.805Y-47.276
X121.532Y-46.002
X121.532Y-61.262
X121.532Y-66.302
X121.532Y-71.342
X129.032Y-46.002
X129.032Y-61.262
X129.032Y-66.302
X129.032Y-71.342
T4
X90.599Y-45.891
X90.599Y-70.072
T5
X90.599Y-42.391
X90.599Y-66.572
T0
M30
