%TF.GenerationSoftware,KiCad,Pcbnew,(5.1.10)-1*%
%TF.CreationDate,2022-04-04T21:04:04+02:00*%
%TF.ProjectId,Quickshifter3,51756963-6b73-4686-9966-746572332e6b,rev?*%
%TF.SameCoordinates,Original*%
%TF.FileFunction,Legend,Bot*%
%TF.FilePolarity,Positive*%
%FSLAX46Y46*%
G04 Gerber Fmt 4.6, Leading zero omitted, Abs format (unit mm)*
G04 Created by KiCad (PCBNEW (5.1.10)-1) date 2022-04-04 21:04:04*
%MOMM*%
%LPD*%
G01*
G04 APERTURE LIST*
%ADD10C,0.120000*%
%ADD11C,0.200000*%
%ADD12C,0.254000*%
%ADD13C,0.100000*%
%ADD14C,0.150000*%
%ADD15O,1.700000X1.700000*%
%ADD16R,1.700000X1.700000*%
%ADD17O,2.300000X1.500000*%
%ADD18R,2.300000X1.500000*%
%ADD19C,2.200000*%
%ADD20R,2.200000X2.200000*%
%ADD21C,2.100000*%
%ADD22O,2.500000X1.600000*%
G04 APERTURE END LIST*
D10*
X116135000Y-48605500D02*
X116135000Y-47275500D01*
X114805000Y-48605500D02*
X116135000Y-48605500D01*
X113535000Y-48605500D02*
X113535000Y-45945500D01*
X113535000Y-45945500D02*
X105855000Y-45945500D01*
X113535000Y-48605500D02*
X105855000Y-48605500D01*
X105855000Y-48605500D02*
X105855000Y-45945500D01*
X93386000Y-39777000D02*
X93386000Y-51498000D01*
X102006000Y-39777000D02*
X102006000Y-51498000D01*
X93386000Y-39777000D02*
X102006000Y-39777000D01*
X93386000Y-51498000D02*
X102006000Y-51498000D01*
X101006000Y-39537000D02*
X102246000Y-39537000D01*
X102246000Y-39537000D02*
X102246000Y-40777000D01*
D11*
X91798800Y-48491200D02*
X90598800Y-48491200D01*
X91798800Y-39891200D02*
X91798800Y-48491200D01*
X82398800Y-39891200D02*
X91798800Y-39891200D01*
X82398800Y-45891200D02*
X82398800Y-39891200D01*
D12*
X131632500Y-43652000D02*
X118932500Y-43652000D01*
X118932500Y-43652000D02*
X118932500Y-72652000D01*
X118932500Y-72652000D02*
X131632500Y-72652000D01*
X131632500Y-72652000D02*
X131632500Y-43652000D01*
X130353230Y-42023670D02*
G75*
G03*
X130353230Y-42023670I-279400J0D01*
G01*
D11*
X82398800Y-70072000D02*
X82398800Y-64072000D01*
X82398800Y-64072000D02*
X91798800Y-64072000D01*
X91798800Y-64072000D02*
X91798800Y-72672000D01*
X91798800Y-72672000D02*
X90598800Y-72672000D01*
D13*
X92904400Y-50143000D02*
X82404400Y-50143000D01*
X92904400Y-62443000D02*
X92904400Y-50143000D01*
X82404400Y-62443000D02*
X92904400Y-62443000D01*
X82404400Y-50143000D02*
X82404400Y-62443000D01*
D14*
X111201333Y-44378380D02*
X111201333Y-45092666D01*
X111248952Y-45235523D01*
X111344190Y-45330761D01*
X111487047Y-45378380D01*
X111582285Y-45378380D01*
X110772761Y-44473619D02*
X110725142Y-44426000D01*
X110629904Y-44378380D01*
X110391809Y-44378380D01*
X110296571Y-44426000D01*
X110248952Y-44473619D01*
X110201333Y-44568857D01*
X110201333Y-44664095D01*
X110248952Y-44806952D01*
X110820380Y-45378380D01*
X110201333Y-45378380D01*
X104517904Y-40314380D02*
X104517904Y-41123904D01*
X104470285Y-41219142D01*
X104422666Y-41266761D01*
X104327428Y-41314380D01*
X104136952Y-41314380D01*
X104041714Y-41266761D01*
X103994095Y-41219142D01*
X103946476Y-41123904D01*
X103946476Y-40314380D01*
X103565523Y-40314380D02*
X102946476Y-40314380D01*
X103279809Y-40695333D01*
X103136952Y-40695333D01*
X103041714Y-40742952D01*
X102994095Y-40790571D01*
X102946476Y-40885809D01*
X102946476Y-41123904D01*
X102994095Y-41219142D01*
X103041714Y-41266761D01*
X103136952Y-41314380D01*
X103422666Y-41314380D01*
X103517904Y-41266761D01*
X103565523Y-41219142D01*
D12*
X89903323Y-45467866D02*
X90810466Y-45467866D01*
X90991895Y-45407390D01*
X91112847Y-45286438D01*
X91173323Y-45105009D01*
X91173323Y-44984057D01*
X91173323Y-46737866D02*
X91173323Y-46012152D01*
X91173323Y-46375009D02*
X89903323Y-46375009D01*
X90084752Y-46254057D01*
X90205704Y-46133104D01*
X90266180Y-46012152D01*
X126029380Y-42960523D02*
X126029380Y-41690523D01*
X125303666Y-42960523D02*
X125847952Y-42234809D01*
X125303666Y-41690523D02*
X126029380Y-42416238D01*
X124094142Y-42960523D02*
X124819857Y-42960523D01*
X124457000Y-42960523D02*
X124457000Y-41690523D01*
X124577952Y-41871952D01*
X124698904Y-41992904D01*
X124819857Y-42053380D01*
X89903323Y-69648666D02*
X90810466Y-69648666D01*
X90991895Y-69588190D01*
X91112847Y-69467238D01*
X91173323Y-69285809D01*
X91173323Y-69164857D01*
X90326657Y-70797714D02*
X91173323Y-70797714D01*
X89842847Y-70495333D02*
X90749990Y-70192952D01*
X90749990Y-70979142D01*
X94527333Y-55406523D02*
X94527333Y-56313666D01*
X94587809Y-56495095D01*
X94708761Y-56616047D01*
X94890190Y-56676523D01*
X95011142Y-56676523D01*
X94043523Y-55406523D02*
X93257333Y-55406523D01*
X93680666Y-55890333D01*
X93499238Y-55890333D01*
X93378285Y-55950809D01*
X93317809Y-56011285D01*
X93257333Y-56132238D01*
X93257333Y-56434619D01*
X93317809Y-56555571D01*
X93378285Y-56616047D01*
X93499238Y-56676523D01*
X93862095Y-56676523D01*
X93983047Y-56616047D01*
X94043523Y-56555571D01*
%LPC*%
D15*
X107185000Y-47275500D03*
X109725000Y-47275500D03*
X112265000Y-47275500D03*
D16*
X114805000Y-47275500D03*
D17*
X99946000Y-48228000D03*
X99946000Y-45688000D03*
D18*
X99946000Y-43148000D03*
D19*
X90598800Y-42391200D03*
D20*
X90598800Y-45891200D03*
D21*
X129032500Y-46002000D03*
X129032500Y-61262000D03*
X129032500Y-66302000D03*
X129032500Y-71342000D03*
X121532500Y-71342000D03*
X121532500Y-66302000D03*
X121532500Y-61262000D03*
X121532500Y-46002000D03*
D20*
X90598800Y-70072000D03*
D19*
X90598800Y-66572000D03*
D22*
X90954400Y-52293000D03*
X90954400Y-54293000D03*
X90954400Y-56293000D03*
X90954400Y-58293000D03*
X90954400Y-60293000D03*
M02*
