%TF.GenerationSoftware,KiCad,Pcbnew,(5.1.10)-1*%
%TF.CreationDate,2022-04-04T21:04:04+02:00*%
%TF.ProjectId,Quickshifter3,51756963-6b73-4686-9966-746572332e6b,rev?*%
%TF.SameCoordinates,Original*%
%TF.FileFunction,Legend,Top*%
%TF.FilePolarity,Positive*%
%FSLAX46Y46*%
G04 Gerber Fmt 4.6, Leading zero omitted, Abs format (unit mm)*
G04 Created by KiCad (PCBNEW (5.1.10)-1) date 2022-04-04 21:04:04*
%MOMM*%
%LPD*%
G01*
G04 APERTURE LIST*
%ADD10C,0.150000*%
%ADD11C,0.120000*%
%ADD12C,0.200000*%
%ADD13C,0.254000*%
%ADD14R,1.500000X2.000000*%
%ADD15R,3.800000X2.000000*%
%ADD16R,0.900000X0.800000*%
%ADD17O,1.700000X1.700000*%
%ADD18R,1.700000X1.700000*%
%ADD19R,0.600000X1.100000*%
%ADD20R,0.600000X1.500000*%
%ADD21R,1.500000X0.600000*%
%ADD22R,0.900000X1.200000*%
%ADD23O,2.300000X1.500000*%
%ADD24R,2.300000X1.500000*%
%ADD25C,2.200000*%
%ADD26R,2.200000X2.200000*%
%ADD27C,2.100000*%
%ADD28O,2.500000X1.600000*%
G04 APERTURE END LIST*
D10*
X128663142Y-57211142D02*
X129306000Y-57211142D01*
X129434571Y-57254000D01*
X129520285Y-57339714D01*
X129563142Y-57468285D01*
X129563142Y-57554000D01*
X129563142Y-56354000D02*
X129563142Y-56782571D01*
X128663142Y-56782571D01*
X129477428Y-55539714D02*
X129520285Y-55582571D01*
X129563142Y-55711142D01*
X129563142Y-55796857D01*
X129520285Y-55925428D01*
X129434571Y-56011142D01*
X129348857Y-56054000D01*
X129177428Y-56096857D01*
X129048857Y-56096857D01*
X128877428Y-56054000D01*
X128791714Y-56011142D01*
X128706000Y-55925428D01*
X128663142Y-55796857D01*
X128663142Y-55711142D01*
X128706000Y-55582571D01*
X128748857Y-55539714D01*
X128663142Y-54896857D02*
X129306000Y-54896857D01*
X129434571Y-54939714D01*
X129520285Y-55025428D01*
X129563142Y-55154000D01*
X129563142Y-55239714D01*
X129563142Y-54039714D02*
X129563142Y-54468285D01*
X128663142Y-54468285D01*
X129477428Y-53225428D02*
X129520285Y-53268285D01*
X129563142Y-53396857D01*
X129563142Y-53482571D01*
X129520285Y-53611142D01*
X129434571Y-53696857D01*
X129348857Y-53739714D01*
X129177428Y-53782571D01*
X129048857Y-53782571D01*
X128877428Y-53739714D01*
X128791714Y-53696857D01*
X128706000Y-53611142D01*
X128663142Y-53482571D01*
X128663142Y-53396857D01*
X128706000Y-53268285D01*
X128748857Y-53225428D01*
X128663142Y-52582571D02*
X129306000Y-52582571D01*
X129434571Y-52625428D01*
X129520285Y-52711142D01*
X129563142Y-52839714D01*
X129563142Y-52925428D01*
X129563142Y-51725428D02*
X129563142Y-52154000D01*
X128663142Y-52154000D01*
X129477428Y-50911142D02*
X129520285Y-50954000D01*
X129563142Y-51082571D01*
X129563142Y-51168285D01*
X129520285Y-51296857D01*
X129434571Y-51382571D01*
X129348857Y-51425428D01*
X129177428Y-51468285D01*
X129048857Y-51468285D01*
X128877428Y-51425428D01*
X128791714Y-51382571D01*
X128706000Y-51296857D01*
X128663142Y-51168285D01*
X128663142Y-51082571D01*
X128706000Y-50954000D01*
X128748857Y-50911142D01*
X128663142Y-50268285D02*
X129306000Y-50268285D01*
X129434571Y-50311142D01*
X129520285Y-50396857D01*
X129563142Y-50525428D01*
X129563142Y-50611142D01*
X129563142Y-49411142D02*
X129563142Y-49839714D01*
X128663142Y-49839714D01*
X129477428Y-48596857D02*
X129520285Y-48639714D01*
X129563142Y-48768285D01*
X129563142Y-48854000D01*
X129520285Y-48982571D01*
X129434571Y-49068285D01*
X129348857Y-49111142D01*
X129177428Y-49154000D01*
X129048857Y-49154000D01*
X128877428Y-49111142D01*
X128791714Y-49068285D01*
X128706000Y-48982571D01*
X128663142Y-48854000D01*
X128663142Y-48768285D01*
X128706000Y-48639714D01*
X128748857Y-48596857D01*
D11*
X118918200Y-57671352D02*
X118918200Y-57148848D01*
X117448200Y-57671352D02*
X117448200Y-57148848D01*
X98233000Y-68695000D02*
X100183000Y-68695000D01*
X98233000Y-68695000D02*
X96283000Y-68695000D01*
X98233000Y-63575000D02*
X100183000Y-63575000D01*
X98233000Y-63575000D02*
X94783000Y-63575000D01*
X93107000Y-58551000D02*
X93107000Y-52541000D01*
X99927000Y-56301000D02*
X99927000Y-52541000D01*
X93107000Y-52541000D02*
X94367000Y-52541000D01*
X99927000Y-52541000D02*
X98667000Y-52541000D01*
X120899400Y-53836564D02*
X120899400Y-53382436D01*
X119429400Y-53836564D02*
X119429400Y-53382436D01*
X117448200Y-53382436D02*
X117448200Y-53836564D01*
X118918200Y-53382436D02*
X118918200Y-53836564D01*
X98284064Y-62933000D02*
X97829936Y-62933000D01*
X98284064Y-61463000D02*
X97829936Y-61463000D01*
X119350064Y-49969500D02*
X118895936Y-49969500D01*
X119350064Y-51439500D02*
X118895936Y-51439500D01*
X123709000Y-55142000D02*
X122249000Y-55142000D01*
X123709000Y-51982000D02*
X121549000Y-51982000D01*
X123709000Y-51982000D02*
X123709000Y-52912000D01*
X123709000Y-55142000D02*
X123709000Y-54212000D01*
D12*
X101237500Y-62951200D02*
X101237500Y-61851200D01*
X104197500Y-61501200D02*
X101277500Y-61501200D01*
X104197500Y-61101200D02*
X104197500Y-61501200D01*
X101277500Y-61101200D02*
X104197500Y-61101200D01*
X101277500Y-61501200D02*
X101277500Y-61101200D01*
X108734000Y-52507500D02*
X115034000Y-52507500D01*
X115034000Y-52507500D02*
X115034000Y-58807500D01*
X115034000Y-58807500D02*
X108734000Y-58807500D01*
X108734000Y-58807500D02*
X108734000Y-52507500D01*
D13*
X107484000Y-51657500D02*
G75*
G03*
X107484000Y-51657500I-200000J0D01*
G01*
D11*
X127419200Y-45722800D02*
X123519200Y-45722800D01*
X127419200Y-43722800D02*
X123519200Y-43722800D01*
X127419200Y-45722800D02*
X127419200Y-43722800D01*
X106332500Y-61582952D02*
X106332500Y-61060448D01*
X104862500Y-61582952D02*
X104862500Y-61060448D01*
X102830500Y-57043348D02*
X102830500Y-57565852D01*
X104300500Y-57043348D02*
X104300500Y-57565852D01*
X104046500Y-47451752D02*
X104046500Y-46929248D01*
X102576500Y-47451752D02*
X102576500Y-46929248D01*
X94350748Y-60647000D02*
X94873252Y-60647000D01*
X94350748Y-59177000D02*
X94873252Y-59177000D01*
X104862500Y-57038448D02*
X104862500Y-57560952D01*
X106332500Y-57038448D02*
X106332500Y-57560952D01*
X98683252Y-59177000D02*
X98160748Y-59177000D01*
X98683252Y-60647000D02*
X98160748Y-60647000D01*
X95381252Y-44699000D02*
X94858748Y-44699000D01*
X95381252Y-46169000D02*
X94858748Y-46169000D01*
X106269000Y-52087252D02*
X106269000Y-51564748D01*
X104799000Y-52087252D02*
X104799000Y-51564748D01*
X104110000Y-52087252D02*
X104110000Y-51564748D01*
X102640000Y-52087252D02*
X102640000Y-51564748D01*
X94858748Y-43858000D02*
X95381252Y-43858000D01*
X94858748Y-42438000D02*
X95381252Y-42438000D01*
X100798500Y-57043348D02*
X100798500Y-57565852D01*
X102268500Y-57043348D02*
X102268500Y-57565852D01*
D10*
X118591142Y-60332666D02*
X118638761Y-60380285D01*
X118686380Y-60523142D01*
X118686380Y-60618380D01*
X118638761Y-60761238D01*
X118543523Y-60856476D01*
X118448285Y-60904095D01*
X118257809Y-60951714D01*
X118114952Y-60951714D01*
X117924476Y-60904095D01*
X117829238Y-60856476D01*
X117734000Y-60761238D01*
X117686380Y-60618380D01*
X117686380Y-60523142D01*
X117734000Y-60380285D01*
X117781619Y-60332666D01*
X118686380Y-59380285D02*
X118686380Y-59951714D01*
X118686380Y-59666000D02*
X117686380Y-59666000D01*
X117829238Y-59761238D01*
X117924476Y-59856476D01*
X117972095Y-59951714D01*
X97471095Y-69270380D02*
X97471095Y-70079904D01*
X97518714Y-70175142D01*
X97566333Y-70222761D01*
X97661571Y-70270380D01*
X97852047Y-70270380D01*
X97947285Y-70222761D01*
X97994904Y-70175142D01*
X98042523Y-70079904D01*
X98042523Y-69270380D01*
X98471095Y-69365619D02*
X98518714Y-69318000D01*
X98613952Y-69270380D01*
X98852047Y-69270380D01*
X98947285Y-69318000D01*
X98994904Y-69365619D01*
X99042523Y-69460857D01*
X99042523Y-69556095D01*
X98994904Y-69698952D01*
X98423476Y-70270380D01*
X99042523Y-70270380D01*
X91469380Y-55212904D02*
X92278904Y-55212904D01*
X92374142Y-55165285D01*
X92421761Y-55117666D01*
X92469380Y-55022428D01*
X92469380Y-54831952D01*
X92421761Y-54736714D01*
X92374142Y-54689095D01*
X92278904Y-54641476D01*
X91469380Y-54641476D01*
X92469380Y-53641476D02*
X92469380Y-54212904D01*
X92469380Y-53927190D02*
X91469380Y-53927190D01*
X91612238Y-54022428D01*
X91707476Y-54117666D01*
X91755095Y-54212904D01*
X120718380Y-57538666D02*
X120242190Y-57872000D01*
X120718380Y-58110095D02*
X119718380Y-58110095D01*
X119718380Y-57729142D01*
X119766000Y-57633904D01*
X119813619Y-57586285D01*
X119908857Y-57538666D01*
X120051714Y-57538666D01*
X120146952Y-57586285D01*
X120194571Y-57633904D01*
X120242190Y-57729142D01*
X120242190Y-58110095D01*
X119718380Y-56681523D02*
X119718380Y-56872000D01*
X119766000Y-56967238D01*
X119813619Y-57014857D01*
X119956476Y-57110095D01*
X120146952Y-57157714D01*
X120527904Y-57157714D01*
X120623142Y-57110095D01*
X120670761Y-57062476D01*
X120718380Y-56967238D01*
X120718380Y-56776761D01*
X120670761Y-56681523D01*
X120623142Y-56633904D01*
X120527904Y-56586285D01*
X120289809Y-56586285D01*
X120194571Y-56633904D01*
X120146952Y-56681523D01*
X120099333Y-56776761D01*
X120099333Y-56967238D01*
X120146952Y-57062476D01*
X120194571Y-57110095D01*
X120289809Y-57157714D01*
X116908380Y-51442666D02*
X116432190Y-51776000D01*
X116908380Y-52014095D02*
X115908380Y-52014095D01*
X115908380Y-51633142D01*
X115956000Y-51537904D01*
X116003619Y-51490285D01*
X116098857Y-51442666D01*
X116241714Y-51442666D01*
X116336952Y-51490285D01*
X116384571Y-51537904D01*
X116432190Y-51633142D01*
X116432190Y-52014095D01*
X116241714Y-50585523D02*
X116908380Y-50585523D01*
X115860761Y-50823619D02*
X116575047Y-51061714D01*
X116575047Y-50442666D01*
X94953333Y-62904380D02*
X94620000Y-62428190D01*
X94381904Y-62904380D02*
X94381904Y-61904380D01*
X94762857Y-61904380D01*
X94858095Y-61952000D01*
X94905714Y-61999619D01*
X94953333Y-62094857D01*
X94953333Y-62237714D01*
X94905714Y-62332952D01*
X94858095Y-62380571D01*
X94762857Y-62428190D01*
X94381904Y-62428190D01*
X95286666Y-61904380D02*
X95905714Y-61904380D01*
X95572380Y-62285333D01*
X95715238Y-62285333D01*
X95810476Y-62332952D01*
X95858095Y-62380571D01*
X95905714Y-62475809D01*
X95905714Y-62713904D01*
X95858095Y-62809142D01*
X95810476Y-62856761D01*
X95715238Y-62904380D01*
X95429523Y-62904380D01*
X95334285Y-62856761D01*
X95286666Y-62809142D01*
X118067333Y-49569380D02*
X117734000Y-49093190D01*
X117495904Y-49569380D02*
X117495904Y-48569380D01*
X117876857Y-48569380D01*
X117972095Y-48617000D01*
X118019714Y-48664619D01*
X118067333Y-48759857D01*
X118067333Y-48902714D01*
X118019714Y-48997952D01*
X117972095Y-49045571D01*
X117876857Y-49093190D01*
X117495904Y-49093190D01*
X118448285Y-48664619D02*
X118495904Y-48617000D01*
X118591142Y-48569380D01*
X118829238Y-48569380D01*
X118924476Y-48617000D01*
X118972095Y-48664619D01*
X119019714Y-48759857D01*
X119019714Y-48855095D01*
X118972095Y-48997952D01*
X118400666Y-49569380D01*
X119019714Y-49569380D01*
X122853761Y-51609619D02*
X122758523Y-51562000D01*
X122663285Y-51466761D01*
X122520428Y-51323904D01*
X122425190Y-51276285D01*
X122329952Y-51276285D01*
X122377571Y-51514380D02*
X122282333Y-51466761D01*
X122187095Y-51371523D01*
X122139476Y-51181047D01*
X122139476Y-50847714D01*
X122187095Y-50657238D01*
X122282333Y-50562000D01*
X122377571Y-50514380D01*
X122568047Y-50514380D01*
X122663285Y-50562000D01*
X122758523Y-50657238D01*
X122806142Y-50847714D01*
X122806142Y-51181047D01*
X122758523Y-51371523D01*
X122663285Y-51466761D01*
X122568047Y-51514380D01*
X122377571Y-51514380D01*
X123758523Y-51514380D02*
X123187095Y-51514380D01*
X123472809Y-51514380D02*
X123472809Y-50514380D01*
X123377571Y-50657238D01*
X123282333Y-50752476D01*
X123187095Y-50800095D01*
D13*
X102262238Y-64804523D02*
X102262238Y-63534523D01*
X103592714Y-64683571D02*
X103532238Y-64744047D01*
X103350809Y-64804523D01*
X103229857Y-64804523D01*
X103048428Y-64744047D01*
X102927476Y-64623095D01*
X102867000Y-64502142D01*
X102806523Y-64260238D01*
X102806523Y-64078809D01*
X102867000Y-63836904D01*
X102927476Y-63715952D01*
X103048428Y-63595000D01*
X103229857Y-63534523D01*
X103350809Y-63534523D01*
X103532238Y-63595000D01*
X103592714Y-63655476D01*
X104016047Y-63534523D02*
X104802238Y-63534523D01*
X104378904Y-64018333D01*
X104560333Y-64018333D01*
X104681285Y-64078809D01*
X104741761Y-64139285D01*
X104802238Y-64260238D01*
X104802238Y-64562619D01*
X104741761Y-64683571D01*
X104681285Y-64744047D01*
X104560333Y-64804523D01*
X104197476Y-64804523D01*
X104076523Y-64744047D01*
X104016047Y-64683571D01*
X110644238Y-62518523D02*
X110644238Y-61248523D01*
X111974714Y-62397571D02*
X111914238Y-62458047D01*
X111732809Y-62518523D01*
X111611857Y-62518523D01*
X111430428Y-62458047D01*
X111309476Y-62337095D01*
X111249000Y-62216142D01*
X111188523Y-61974238D01*
X111188523Y-61792809D01*
X111249000Y-61550904D01*
X111309476Y-61429952D01*
X111430428Y-61309000D01*
X111611857Y-61248523D01*
X111732809Y-61248523D01*
X111914238Y-61309000D01*
X111974714Y-61369476D01*
X113184238Y-62518523D02*
X112458523Y-62518523D01*
X112821380Y-62518523D02*
X112821380Y-61248523D01*
X112700428Y-61429952D01*
X112579476Y-61550904D01*
X112458523Y-61611380D01*
D10*
X124431104Y-47175180D02*
X124431104Y-46175180D01*
X124669200Y-46175180D01*
X124812057Y-46222800D01*
X124907295Y-46318038D01*
X124954914Y-46413276D01*
X125002533Y-46603752D01*
X125002533Y-46746609D01*
X124954914Y-46937085D01*
X124907295Y-47032323D01*
X124812057Y-47127561D01*
X124669200Y-47175180D01*
X124431104Y-47175180D01*
X125859676Y-46508514D02*
X125859676Y-47175180D01*
X125621580Y-46127561D02*
X125383485Y-46841847D01*
X126002533Y-46841847D01*
X106145142Y-65380857D02*
X106192761Y-65428476D01*
X106240380Y-65571333D01*
X106240380Y-65666571D01*
X106192761Y-65809428D01*
X106097523Y-65904666D01*
X106002285Y-65952285D01*
X105811809Y-65999904D01*
X105668952Y-65999904D01*
X105478476Y-65952285D01*
X105383238Y-65904666D01*
X105288000Y-65809428D01*
X105240380Y-65666571D01*
X105240380Y-65571333D01*
X105288000Y-65428476D01*
X105335619Y-65380857D01*
X106240380Y-64428476D02*
X106240380Y-64999904D01*
X106240380Y-64714190D02*
X105240380Y-64714190D01*
X105383238Y-64809428D01*
X105478476Y-64904666D01*
X105526095Y-64999904D01*
X105240380Y-64095142D02*
X105240380Y-63476095D01*
X105621333Y-63809428D01*
X105621333Y-63666571D01*
X105668952Y-63571333D01*
X105716571Y-63523714D01*
X105811809Y-63476095D01*
X106049904Y-63476095D01*
X106145142Y-63523714D01*
X106192761Y-63571333D01*
X106240380Y-63666571D01*
X106240380Y-63952285D01*
X106192761Y-64047523D01*
X106145142Y-64095142D01*
X102859142Y-55316142D02*
X102811523Y-55363761D01*
X102668666Y-55411380D01*
X102573428Y-55411380D01*
X102430571Y-55363761D01*
X102335333Y-55268523D01*
X102287714Y-55173285D01*
X102240095Y-54982809D01*
X102240095Y-54839952D01*
X102287714Y-54649476D01*
X102335333Y-54554238D01*
X102430571Y-54459000D01*
X102573428Y-54411380D01*
X102668666Y-54411380D01*
X102811523Y-54459000D01*
X102859142Y-54506619D01*
X103811523Y-55411380D02*
X103240095Y-55411380D01*
X103525809Y-55411380D02*
X103525809Y-54411380D01*
X103430571Y-54554238D01*
X103335333Y-54649476D01*
X103240095Y-54697095D01*
X104763904Y-55411380D02*
X104192476Y-55411380D01*
X104478190Y-55411380D02*
X104478190Y-54411380D01*
X104382952Y-54554238D01*
X104287714Y-54649476D01*
X104192476Y-54697095D01*
X103605142Y-43790857D02*
X103652761Y-43838476D01*
X103700380Y-43981333D01*
X103700380Y-44076571D01*
X103652761Y-44219428D01*
X103557523Y-44314666D01*
X103462285Y-44362285D01*
X103271809Y-44409904D01*
X103128952Y-44409904D01*
X102938476Y-44362285D01*
X102843238Y-44314666D01*
X102748000Y-44219428D01*
X102700380Y-44076571D01*
X102700380Y-43981333D01*
X102748000Y-43838476D01*
X102795619Y-43790857D01*
X103700380Y-42838476D02*
X103700380Y-43409904D01*
X103700380Y-43124190D02*
X102700380Y-43124190D01*
X102843238Y-43219428D01*
X102938476Y-43314666D01*
X102986095Y-43409904D01*
X102700380Y-42219428D02*
X102700380Y-42124190D01*
X102748000Y-42028952D01*
X102795619Y-41981333D01*
X102890857Y-41933714D01*
X103081333Y-41886095D01*
X103319428Y-41886095D01*
X103509904Y-41933714D01*
X103605142Y-41981333D01*
X103652761Y-42028952D01*
X103700380Y-42124190D01*
X103700380Y-42219428D01*
X103652761Y-42314666D01*
X103605142Y-42362285D01*
X103509904Y-42409904D01*
X103319428Y-42457523D01*
X103081333Y-42457523D01*
X102890857Y-42409904D01*
X102795619Y-42362285D01*
X102748000Y-42314666D01*
X102700380Y-42219428D01*
X92413333Y-62555142D02*
X92365714Y-62602761D01*
X92222857Y-62650380D01*
X92127619Y-62650380D01*
X91984761Y-62602761D01*
X91889523Y-62507523D01*
X91841904Y-62412285D01*
X91794285Y-62221809D01*
X91794285Y-62078952D01*
X91841904Y-61888476D01*
X91889523Y-61793238D01*
X91984761Y-61698000D01*
X92127619Y-61650380D01*
X92222857Y-61650380D01*
X92365714Y-61698000D01*
X92413333Y-61745619D01*
X92889523Y-62650380D02*
X93080000Y-62650380D01*
X93175238Y-62602761D01*
X93222857Y-62555142D01*
X93318095Y-62412285D01*
X93365714Y-62221809D01*
X93365714Y-61840857D01*
X93318095Y-61745619D01*
X93270476Y-61698000D01*
X93175238Y-61650380D01*
X92984761Y-61650380D01*
X92889523Y-61698000D01*
X92841904Y-61745619D01*
X92794285Y-61840857D01*
X92794285Y-62078952D01*
X92841904Y-62174190D01*
X92889523Y-62221809D01*
X92984761Y-62269428D01*
X93175238Y-62269428D01*
X93270476Y-62221809D01*
X93318095Y-62174190D01*
X93365714Y-62078952D01*
X105367333Y-55316142D02*
X105319714Y-55363761D01*
X105176857Y-55411380D01*
X105081619Y-55411380D01*
X104938761Y-55363761D01*
X104843523Y-55268523D01*
X104795904Y-55173285D01*
X104748285Y-54982809D01*
X104748285Y-54839952D01*
X104795904Y-54649476D01*
X104843523Y-54554238D01*
X104938761Y-54459000D01*
X105081619Y-54411380D01*
X105176857Y-54411380D01*
X105319714Y-54459000D01*
X105367333Y-54506619D01*
X105938761Y-54839952D02*
X105843523Y-54792333D01*
X105795904Y-54744714D01*
X105748285Y-54649476D01*
X105748285Y-54601857D01*
X105795904Y-54506619D01*
X105843523Y-54459000D01*
X105938761Y-54411380D01*
X106129238Y-54411380D01*
X106224476Y-54459000D01*
X106272095Y-54506619D01*
X106319714Y-54601857D01*
X106319714Y-54649476D01*
X106272095Y-54744714D01*
X106224476Y-54792333D01*
X106129238Y-54839952D01*
X105938761Y-54839952D01*
X105843523Y-54887571D01*
X105795904Y-54935190D01*
X105748285Y-55030428D01*
X105748285Y-55220904D01*
X105795904Y-55316142D01*
X105843523Y-55363761D01*
X105938761Y-55411380D01*
X106129238Y-55411380D01*
X106224476Y-55363761D01*
X106272095Y-55316142D01*
X106319714Y-55220904D01*
X106319714Y-55030428D01*
X106272095Y-54935190D01*
X106224476Y-54887571D01*
X106129238Y-54839952D01*
X100414333Y-61793142D02*
X100366714Y-61840761D01*
X100223857Y-61888380D01*
X100128619Y-61888380D01*
X99985761Y-61840761D01*
X99890523Y-61745523D01*
X99842904Y-61650285D01*
X99795285Y-61459809D01*
X99795285Y-61316952D01*
X99842904Y-61126476D01*
X99890523Y-61031238D01*
X99985761Y-60936000D01*
X100128619Y-60888380D01*
X100223857Y-60888380D01*
X100366714Y-60936000D01*
X100414333Y-60983619D01*
X100747666Y-60888380D02*
X101414333Y-60888380D01*
X100985761Y-61888380D01*
X94953333Y-47471142D02*
X94905714Y-47518761D01*
X94762857Y-47566380D01*
X94667619Y-47566380D01*
X94524761Y-47518761D01*
X94429523Y-47423523D01*
X94381904Y-47328285D01*
X94334285Y-47137809D01*
X94334285Y-46994952D01*
X94381904Y-46804476D01*
X94429523Y-46709238D01*
X94524761Y-46614000D01*
X94667619Y-46566380D01*
X94762857Y-46566380D01*
X94905714Y-46614000D01*
X94953333Y-46661619D01*
X95858095Y-46566380D02*
X95381904Y-46566380D01*
X95334285Y-47042571D01*
X95381904Y-46994952D01*
X95477142Y-46947333D01*
X95715238Y-46947333D01*
X95810476Y-46994952D01*
X95858095Y-47042571D01*
X95905714Y-47137809D01*
X95905714Y-47375904D01*
X95858095Y-47471142D01*
X95810476Y-47518761D01*
X95715238Y-47566380D01*
X95477142Y-47566380D01*
X95381904Y-47518761D01*
X95334285Y-47471142D01*
X107018333Y-49982142D02*
X106970714Y-50029761D01*
X106827857Y-50077380D01*
X106732619Y-50077380D01*
X106589761Y-50029761D01*
X106494523Y-49934523D01*
X106446904Y-49839285D01*
X106399285Y-49648809D01*
X106399285Y-49505952D01*
X106446904Y-49315476D01*
X106494523Y-49220238D01*
X106589761Y-49125000D01*
X106732619Y-49077380D01*
X106827857Y-49077380D01*
X106970714Y-49125000D01*
X107018333Y-49172619D01*
X107875476Y-49410714D02*
X107875476Y-50077380D01*
X107637380Y-49029761D02*
X107399285Y-49744047D01*
X108018333Y-49744047D01*
X101303333Y-50109142D02*
X101255714Y-50156761D01*
X101112857Y-50204380D01*
X101017619Y-50204380D01*
X100874761Y-50156761D01*
X100779523Y-50061523D01*
X100731904Y-49966285D01*
X100684285Y-49775809D01*
X100684285Y-49632952D01*
X100731904Y-49442476D01*
X100779523Y-49347238D01*
X100874761Y-49252000D01*
X101017619Y-49204380D01*
X101112857Y-49204380D01*
X101255714Y-49252000D01*
X101303333Y-49299619D01*
X101636666Y-49204380D02*
X102255714Y-49204380D01*
X101922380Y-49585333D01*
X102065238Y-49585333D01*
X102160476Y-49632952D01*
X102208095Y-49680571D01*
X102255714Y-49775809D01*
X102255714Y-50013904D01*
X102208095Y-50109142D01*
X102160476Y-50156761D01*
X102065238Y-50204380D01*
X101779523Y-50204380D01*
X101684285Y-50156761D01*
X101636666Y-50109142D01*
X94953333Y-41950380D02*
X94477142Y-41950380D01*
X94477142Y-40950380D01*
X95810476Y-41950380D02*
X95239047Y-41950380D01*
X95524761Y-41950380D02*
X95524761Y-40950380D01*
X95429523Y-41093238D01*
X95334285Y-41188476D01*
X95239047Y-41236095D01*
X101827142Y-54839857D02*
X101874761Y-54887476D01*
X101922380Y-55030333D01*
X101922380Y-55125571D01*
X101874761Y-55268428D01*
X101779523Y-55363666D01*
X101684285Y-55411285D01*
X101493809Y-55458904D01*
X101350952Y-55458904D01*
X101160476Y-55411285D01*
X101065238Y-55363666D01*
X100970000Y-55268428D01*
X100922380Y-55125571D01*
X100922380Y-55030333D01*
X100970000Y-54887476D01*
X101017619Y-54839857D01*
X101922380Y-53887476D02*
X101922380Y-54458904D01*
X101922380Y-54173190D02*
X100922380Y-54173190D01*
X101065238Y-54268428D01*
X101160476Y-54363666D01*
X101208095Y-54458904D01*
X101017619Y-53506523D02*
X100970000Y-53458904D01*
X100922380Y-53363666D01*
X100922380Y-53125571D01*
X100970000Y-53030333D01*
X101017619Y-52982714D01*
X101112857Y-52935095D01*
X101208095Y-52935095D01*
X101350952Y-52982714D01*
X101922380Y-53554142D01*
X101922380Y-52935095D01*
%LPC*%
G36*
G01*
X118658200Y-56960100D02*
X117708200Y-56960100D01*
G75*
G02*
X117458200Y-56710100I0J250000D01*
G01*
X117458200Y-56035100D01*
G75*
G02*
X117708200Y-55785100I250000J0D01*
G01*
X118658200Y-55785100D01*
G75*
G02*
X118908200Y-56035100I0J-250000D01*
G01*
X118908200Y-56710100D01*
G75*
G02*
X118658200Y-56960100I-250000J0D01*
G01*
G37*
G36*
G01*
X118658200Y-59035100D02*
X117708200Y-59035100D01*
G75*
G02*
X117458200Y-58785100I0J250000D01*
G01*
X117458200Y-58110100D01*
G75*
G02*
X117708200Y-57860100I250000J0D01*
G01*
X118658200Y-57860100D01*
G75*
G02*
X118908200Y-58110100I0J-250000D01*
G01*
X118908200Y-58785100D01*
G75*
G02*
X118658200Y-59035100I-250000J0D01*
G01*
G37*
G36*
G01*
X94783000Y-64380000D02*
X94783000Y-64080000D01*
G75*
G02*
X94933000Y-63930000I150000J0D01*
G01*
X96583000Y-63930000D01*
G75*
G02*
X96733000Y-64080000I0J-150000D01*
G01*
X96733000Y-64380000D01*
G75*
G02*
X96583000Y-64530000I-150000J0D01*
G01*
X94933000Y-64530000D01*
G75*
G02*
X94783000Y-64380000I0J150000D01*
G01*
G37*
G36*
G01*
X94783000Y-65650000D02*
X94783000Y-65350000D01*
G75*
G02*
X94933000Y-65200000I150000J0D01*
G01*
X96583000Y-65200000D01*
G75*
G02*
X96733000Y-65350000I0J-150000D01*
G01*
X96733000Y-65650000D01*
G75*
G02*
X96583000Y-65800000I-150000J0D01*
G01*
X94933000Y-65800000D01*
G75*
G02*
X94783000Y-65650000I0J150000D01*
G01*
G37*
G36*
G01*
X94783000Y-66920000D02*
X94783000Y-66620000D01*
G75*
G02*
X94933000Y-66470000I150000J0D01*
G01*
X96583000Y-66470000D01*
G75*
G02*
X96733000Y-66620000I0J-150000D01*
G01*
X96733000Y-66920000D01*
G75*
G02*
X96583000Y-67070000I-150000J0D01*
G01*
X94933000Y-67070000D01*
G75*
G02*
X94783000Y-66920000I0J150000D01*
G01*
G37*
G36*
G01*
X94783000Y-68190000D02*
X94783000Y-67890000D01*
G75*
G02*
X94933000Y-67740000I150000J0D01*
G01*
X96583000Y-67740000D01*
G75*
G02*
X96733000Y-67890000I0J-150000D01*
G01*
X96733000Y-68190000D01*
G75*
G02*
X96583000Y-68340000I-150000J0D01*
G01*
X94933000Y-68340000D01*
G75*
G02*
X94783000Y-68190000I0J150000D01*
G01*
G37*
G36*
G01*
X99733000Y-68190000D02*
X99733000Y-67890000D01*
G75*
G02*
X99883000Y-67740000I150000J0D01*
G01*
X101533000Y-67740000D01*
G75*
G02*
X101683000Y-67890000I0J-150000D01*
G01*
X101683000Y-68190000D01*
G75*
G02*
X101533000Y-68340000I-150000J0D01*
G01*
X99883000Y-68340000D01*
G75*
G02*
X99733000Y-68190000I0J150000D01*
G01*
G37*
G36*
G01*
X99733000Y-66920000D02*
X99733000Y-66620000D01*
G75*
G02*
X99883000Y-66470000I150000J0D01*
G01*
X101533000Y-66470000D01*
G75*
G02*
X101683000Y-66620000I0J-150000D01*
G01*
X101683000Y-66920000D01*
G75*
G02*
X101533000Y-67070000I-150000J0D01*
G01*
X99883000Y-67070000D01*
G75*
G02*
X99733000Y-66920000I0J150000D01*
G01*
G37*
G36*
G01*
X99733000Y-65650000D02*
X99733000Y-65350000D01*
G75*
G02*
X99883000Y-65200000I150000J0D01*
G01*
X101533000Y-65200000D01*
G75*
G02*
X101683000Y-65350000I0J-150000D01*
G01*
X101683000Y-65650000D01*
G75*
G02*
X101533000Y-65800000I-150000J0D01*
G01*
X99883000Y-65800000D01*
G75*
G02*
X99733000Y-65650000I0J150000D01*
G01*
G37*
G36*
G01*
X99733000Y-64380000D02*
X99733000Y-64080000D01*
G75*
G02*
X99883000Y-63930000I150000J0D01*
G01*
X101533000Y-63930000D01*
G75*
G02*
X101683000Y-64080000I0J-150000D01*
G01*
X101683000Y-64380000D01*
G75*
G02*
X101533000Y-64530000I-150000J0D01*
G01*
X99883000Y-64530000D01*
G75*
G02*
X99733000Y-64380000I0J150000D01*
G01*
G37*
D14*
X94217000Y-57601000D03*
X98817000Y-57601000D03*
X96517000Y-57601000D03*
D15*
X96517000Y-51301000D03*
G36*
G01*
X120614401Y-53209500D02*
X119714399Y-53209500D01*
G75*
G02*
X119464400Y-52959501I0J249999D01*
G01*
X119464400Y-52259499D01*
G75*
G02*
X119714399Y-52009500I249999J0D01*
G01*
X120614401Y-52009500D01*
G75*
G02*
X120864400Y-52259499I0J-249999D01*
G01*
X120864400Y-52959501D01*
G75*
G02*
X120614401Y-53209500I-249999J0D01*
G01*
G37*
G36*
G01*
X120614401Y-55209500D02*
X119714399Y-55209500D01*
G75*
G02*
X119464400Y-54959501I0J249999D01*
G01*
X119464400Y-54259499D01*
G75*
G02*
X119714399Y-54009500I249999J0D01*
G01*
X120614401Y-54009500D01*
G75*
G02*
X120864400Y-54259499I0J-249999D01*
G01*
X120864400Y-54959501D01*
G75*
G02*
X120614401Y-55209500I-249999J0D01*
G01*
G37*
G36*
G01*
X117733199Y-54009500D02*
X118633201Y-54009500D01*
G75*
G02*
X118883200Y-54259499I0J-249999D01*
G01*
X118883200Y-54959501D01*
G75*
G02*
X118633201Y-55209500I-249999J0D01*
G01*
X117733199Y-55209500D01*
G75*
G02*
X117483200Y-54959501I0J249999D01*
G01*
X117483200Y-54259499D01*
G75*
G02*
X117733199Y-54009500I249999J0D01*
G01*
G37*
G36*
G01*
X117733199Y-52009500D02*
X118633201Y-52009500D01*
G75*
G02*
X118883200Y-52259499I0J-249999D01*
G01*
X118883200Y-52959501D01*
G75*
G02*
X118633201Y-53209500I-249999J0D01*
G01*
X117733199Y-53209500D01*
G75*
G02*
X117483200Y-52959501I0J249999D01*
G01*
X117483200Y-52259499D01*
G75*
G02*
X117733199Y-52009500I249999J0D01*
G01*
G37*
G36*
G01*
X99657000Y-61747999D02*
X99657000Y-62648001D01*
G75*
G02*
X99407001Y-62898000I-249999J0D01*
G01*
X98706999Y-62898000D01*
G75*
G02*
X98457000Y-62648001I0J249999D01*
G01*
X98457000Y-61747999D01*
G75*
G02*
X98706999Y-61498000I249999J0D01*
G01*
X99407001Y-61498000D01*
G75*
G02*
X99657000Y-61747999I0J-249999D01*
G01*
G37*
G36*
G01*
X97657000Y-61747999D02*
X97657000Y-62648001D01*
G75*
G02*
X97407001Y-62898000I-249999J0D01*
G01*
X96706999Y-62898000D01*
G75*
G02*
X96457000Y-62648001I0J249999D01*
G01*
X96457000Y-61747999D01*
G75*
G02*
X96706999Y-61498000I249999J0D01*
G01*
X97407001Y-61498000D01*
G75*
G02*
X97657000Y-61747999I0J-249999D01*
G01*
G37*
G36*
G01*
X118723000Y-50254499D02*
X118723000Y-51154501D01*
G75*
G02*
X118473001Y-51404500I-249999J0D01*
G01*
X117772999Y-51404500D01*
G75*
G02*
X117523000Y-51154501I0J249999D01*
G01*
X117523000Y-50254499D01*
G75*
G02*
X117772999Y-50004500I249999J0D01*
G01*
X118473001Y-50004500D01*
G75*
G02*
X118723000Y-50254499I0J-249999D01*
G01*
G37*
G36*
G01*
X120723000Y-50254499D02*
X120723000Y-51154501D01*
G75*
G02*
X120473001Y-51404500I-249999J0D01*
G01*
X119772999Y-51404500D01*
G75*
G02*
X119523000Y-51154501I0J249999D01*
G01*
X119523000Y-50254499D01*
G75*
G02*
X119772999Y-50004500I249999J0D01*
G01*
X120473001Y-50004500D01*
G75*
G02*
X120723000Y-50254499I0J-249999D01*
G01*
G37*
D16*
X123949000Y-53562000D03*
X121949000Y-54512000D03*
X121949000Y-52612000D03*
D17*
X107185000Y-47275500D03*
X109725000Y-47275500D03*
X112265000Y-47275500D03*
D18*
X114805000Y-47275500D03*
D19*
X101787500Y-62401200D03*
X103687500Y-62401200D03*
X102737500Y-60201200D03*
D20*
X109084000Y-51407500D03*
X109884000Y-51407500D03*
X110684000Y-51407500D03*
X111484000Y-51407500D03*
X112284000Y-51407500D03*
X113084000Y-51407500D03*
X113884000Y-51407500D03*
X114684000Y-51407500D03*
D21*
X116134000Y-52857500D03*
X116134000Y-53657500D03*
X116134000Y-54457500D03*
X116134000Y-55257500D03*
X116134000Y-56057500D03*
X116134000Y-56857500D03*
X116134000Y-57657500D03*
X116134000Y-58457500D03*
D20*
X114684000Y-59907500D03*
X113884000Y-59907500D03*
X113084000Y-59907500D03*
X112284000Y-59907500D03*
X111484000Y-59907500D03*
X110684000Y-59907500D03*
X109884000Y-59907500D03*
X109084000Y-59907500D03*
D21*
X107634000Y-58457500D03*
X107634000Y-57657500D03*
X107634000Y-56857500D03*
X107634000Y-56057500D03*
X107634000Y-55257500D03*
X107634000Y-54457500D03*
X107634000Y-53657500D03*
X107634000Y-52857500D03*
D22*
X123519200Y-44722800D03*
X126819200Y-44722800D03*
G36*
G01*
X106072500Y-60871700D02*
X105122500Y-60871700D01*
G75*
G02*
X104872500Y-60621700I0J250000D01*
G01*
X104872500Y-59946700D01*
G75*
G02*
X105122500Y-59696700I250000J0D01*
G01*
X106072500Y-59696700D01*
G75*
G02*
X106322500Y-59946700I0J-250000D01*
G01*
X106322500Y-60621700D01*
G75*
G02*
X106072500Y-60871700I-250000J0D01*
G01*
G37*
G36*
G01*
X106072500Y-62946700D02*
X105122500Y-62946700D01*
G75*
G02*
X104872500Y-62696700I0J250000D01*
G01*
X104872500Y-62021700D01*
G75*
G02*
X105122500Y-61771700I250000J0D01*
G01*
X106072500Y-61771700D01*
G75*
G02*
X106322500Y-62021700I0J-250000D01*
G01*
X106322500Y-62696700D01*
G75*
G02*
X106072500Y-62946700I-250000J0D01*
G01*
G37*
G36*
G01*
X103090500Y-57754600D02*
X104040500Y-57754600D01*
G75*
G02*
X104290500Y-58004600I0J-250000D01*
G01*
X104290500Y-58679600D01*
G75*
G02*
X104040500Y-58929600I-250000J0D01*
G01*
X103090500Y-58929600D01*
G75*
G02*
X102840500Y-58679600I0J250000D01*
G01*
X102840500Y-58004600D01*
G75*
G02*
X103090500Y-57754600I250000J0D01*
G01*
G37*
G36*
G01*
X103090500Y-55679600D02*
X104040500Y-55679600D01*
G75*
G02*
X104290500Y-55929600I0J-250000D01*
G01*
X104290500Y-56604600D01*
G75*
G02*
X104040500Y-56854600I-250000J0D01*
G01*
X103090500Y-56854600D01*
G75*
G02*
X102840500Y-56604600I0J250000D01*
G01*
X102840500Y-55929600D01*
G75*
G02*
X103090500Y-55679600I250000J0D01*
G01*
G37*
G36*
G01*
X103786500Y-46740500D02*
X102836500Y-46740500D01*
G75*
G02*
X102586500Y-46490500I0J250000D01*
G01*
X102586500Y-45815500D01*
G75*
G02*
X102836500Y-45565500I250000J0D01*
G01*
X103786500Y-45565500D01*
G75*
G02*
X104036500Y-45815500I0J-250000D01*
G01*
X104036500Y-46490500D01*
G75*
G02*
X103786500Y-46740500I-250000J0D01*
G01*
G37*
G36*
G01*
X103786500Y-48815500D02*
X102836500Y-48815500D01*
G75*
G02*
X102586500Y-48565500I0J250000D01*
G01*
X102586500Y-47890500D01*
G75*
G02*
X102836500Y-47640500I250000J0D01*
G01*
X103786500Y-47640500D01*
G75*
G02*
X104036500Y-47890500I0J-250000D01*
G01*
X104036500Y-48565500D01*
G75*
G02*
X103786500Y-48815500I-250000J0D01*
G01*
G37*
G36*
G01*
X95062000Y-60387000D02*
X95062000Y-59437000D01*
G75*
G02*
X95312000Y-59187000I250000J0D01*
G01*
X95987000Y-59187000D01*
G75*
G02*
X96237000Y-59437000I0J-250000D01*
G01*
X96237000Y-60387000D01*
G75*
G02*
X95987000Y-60637000I-250000J0D01*
G01*
X95312000Y-60637000D01*
G75*
G02*
X95062000Y-60387000I0J250000D01*
G01*
G37*
G36*
G01*
X92987000Y-60387000D02*
X92987000Y-59437000D01*
G75*
G02*
X93237000Y-59187000I250000J0D01*
G01*
X93912000Y-59187000D01*
G75*
G02*
X94162000Y-59437000I0J-250000D01*
G01*
X94162000Y-60387000D01*
G75*
G02*
X93912000Y-60637000I-250000J0D01*
G01*
X93237000Y-60637000D01*
G75*
G02*
X92987000Y-60387000I0J250000D01*
G01*
G37*
G36*
G01*
X105122500Y-57749700D02*
X106072500Y-57749700D01*
G75*
G02*
X106322500Y-57999700I0J-250000D01*
G01*
X106322500Y-58674700D01*
G75*
G02*
X106072500Y-58924700I-250000J0D01*
G01*
X105122500Y-58924700D01*
G75*
G02*
X104872500Y-58674700I0J250000D01*
G01*
X104872500Y-57999700D01*
G75*
G02*
X105122500Y-57749700I250000J0D01*
G01*
G37*
G36*
G01*
X105122500Y-55674700D02*
X106072500Y-55674700D01*
G75*
G02*
X106322500Y-55924700I0J-250000D01*
G01*
X106322500Y-56599700D01*
G75*
G02*
X106072500Y-56849700I-250000J0D01*
G01*
X105122500Y-56849700D01*
G75*
G02*
X104872500Y-56599700I0J250000D01*
G01*
X104872500Y-55924700D01*
G75*
G02*
X105122500Y-55674700I250000J0D01*
G01*
G37*
G36*
G01*
X97972000Y-59437000D02*
X97972000Y-60387000D01*
G75*
G02*
X97722000Y-60637000I-250000J0D01*
G01*
X97047000Y-60637000D01*
G75*
G02*
X96797000Y-60387000I0J250000D01*
G01*
X96797000Y-59437000D01*
G75*
G02*
X97047000Y-59187000I250000J0D01*
G01*
X97722000Y-59187000D01*
G75*
G02*
X97972000Y-59437000I0J-250000D01*
G01*
G37*
G36*
G01*
X100047000Y-59437000D02*
X100047000Y-60387000D01*
G75*
G02*
X99797000Y-60637000I-250000J0D01*
G01*
X99122000Y-60637000D01*
G75*
G02*
X98872000Y-60387000I0J250000D01*
G01*
X98872000Y-59437000D01*
G75*
G02*
X99122000Y-59187000I250000J0D01*
G01*
X99797000Y-59187000D01*
G75*
G02*
X100047000Y-59437000I0J-250000D01*
G01*
G37*
G36*
G01*
X94670000Y-44959000D02*
X94670000Y-45909000D01*
G75*
G02*
X94420000Y-46159000I-250000J0D01*
G01*
X93745000Y-46159000D01*
G75*
G02*
X93495000Y-45909000I0J250000D01*
G01*
X93495000Y-44959000D01*
G75*
G02*
X93745000Y-44709000I250000J0D01*
G01*
X94420000Y-44709000D01*
G75*
G02*
X94670000Y-44959000I0J-250000D01*
G01*
G37*
G36*
G01*
X96745000Y-44959000D02*
X96745000Y-45909000D01*
G75*
G02*
X96495000Y-46159000I-250000J0D01*
G01*
X95820000Y-46159000D01*
G75*
G02*
X95570000Y-45909000I0J250000D01*
G01*
X95570000Y-44959000D01*
G75*
G02*
X95820000Y-44709000I250000J0D01*
G01*
X96495000Y-44709000D01*
G75*
G02*
X96745000Y-44959000I0J-250000D01*
G01*
G37*
G36*
G01*
X106009000Y-51376000D02*
X105059000Y-51376000D01*
G75*
G02*
X104809000Y-51126000I0J250000D01*
G01*
X104809000Y-50451000D01*
G75*
G02*
X105059000Y-50201000I250000J0D01*
G01*
X106009000Y-50201000D01*
G75*
G02*
X106259000Y-50451000I0J-250000D01*
G01*
X106259000Y-51126000D01*
G75*
G02*
X106009000Y-51376000I-250000J0D01*
G01*
G37*
G36*
G01*
X106009000Y-53451000D02*
X105059000Y-53451000D01*
G75*
G02*
X104809000Y-53201000I0J250000D01*
G01*
X104809000Y-52526000D01*
G75*
G02*
X105059000Y-52276000I250000J0D01*
G01*
X106009000Y-52276000D01*
G75*
G02*
X106259000Y-52526000I0J-250000D01*
G01*
X106259000Y-53201000D01*
G75*
G02*
X106009000Y-53451000I-250000J0D01*
G01*
G37*
G36*
G01*
X103850000Y-51376000D02*
X102900000Y-51376000D01*
G75*
G02*
X102650000Y-51126000I0J250000D01*
G01*
X102650000Y-50451000D01*
G75*
G02*
X102900000Y-50201000I250000J0D01*
G01*
X103850000Y-50201000D01*
G75*
G02*
X104100000Y-50451000I0J-250000D01*
G01*
X104100000Y-51126000D01*
G75*
G02*
X103850000Y-51376000I-250000J0D01*
G01*
G37*
G36*
G01*
X103850000Y-53451000D02*
X102900000Y-53451000D01*
G75*
G02*
X102650000Y-53201000I0J250000D01*
G01*
X102650000Y-52526000D01*
G75*
G02*
X102900000Y-52276000I250000J0D01*
G01*
X103850000Y-52276000D01*
G75*
G02*
X104100000Y-52526000I0J-250000D01*
G01*
X104100000Y-53201000D01*
G75*
G02*
X103850000Y-53451000I-250000J0D01*
G01*
G37*
G36*
G01*
X95570000Y-43598001D02*
X95570000Y-42697999D01*
G75*
G02*
X95819999Y-42448000I249999J0D01*
G01*
X96470001Y-42448000D01*
G75*
G02*
X96720000Y-42697999I0J-249999D01*
G01*
X96720000Y-43598001D01*
G75*
G02*
X96470001Y-43848000I-249999J0D01*
G01*
X95819999Y-43848000D01*
G75*
G02*
X95570000Y-43598001I0J249999D01*
G01*
G37*
G36*
G01*
X93520000Y-43598001D02*
X93520000Y-42697999D01*
G75*
G02*
X93769999Y-42448000I249999J0D01*
G01*
X94420001Y-42448000D01*
G75*
G02*
X94670000Y-42697999I0J-249999D01*
G01*
X94670000Y-43598001D01*
G75*
G02*
X94420001Y-43848000I-249999J0D01*
G01*
X93769999Y-43848000D01*
G75*
G02*
X93520000Y-43598001I0J249999D01*
G01*
G37*
G36*
G01*
X101058500Y-57754600D02*
X102008500Y-57754600D01*
G75*
G02*
X102258500Y-58004600I0J-250000D01*
G01*
X102258500Y-58679600D01*
G75*
G02*
X102008500Y-58929600I-250000J0D01*
G01*
X101058500Y-58929600D01*
G75*
G02*
X100808500Y-58679600I0J250000D01*
G01*
X100808500Y-58004600D01*
G75*
G02*
X101058500Y-57754600I250000J0D01*
G01*
G37*
G36*
G01*
X101058500Y-55679600D02*
X102008500Y-55679600D01*
G75*
G02*
X102258500Y-55929600I0J-250000D01*
G01*
X102258500Y-56604600D01*
G75*
G02*
X102008500Y-56854600I-250000J0D01*
G01*
X101058500Y-56854600D01*
G75*
G02*
X100808500Y-56604600I0J250000D01*
G01*
X100808500Y-55929600D01*
G75*
G02*
X101058500Y-55679600I250000J0D01*
G01*
G37*
D23*
X99946000Y-48228000D03*
X99946000Y-45688000D03*
D24*
X99946000Y-43148000D03*
D25*
X90598800Y-42391200D03*
D26*
X90598800Y-45891200D03*
D27*
X129032500Y-46002000D03*
X129032500Y-61262000D03*
X129032500Y-66302000D03*
X129032500Y-71342000D03*
X121532500Y-71342000D03*
X121532500Y-66302000D03*
X121532500Y-61262000D03*
X121532500Y-46002000D03*
D26*
X90598800Y-70072000D03*
D25*
X90598800Y-66572000D03*
D28*
X90954400Y-52293000D03*
X90954400Y-54293000D03*
X90954400Y-56293000D03*
X90954400Y-58293000D03*
X90954400Y-60293000D03*
M02*
